<svg width="25" height="26" viewBox="0 0 25 26" fill="none" xmlns="http://www.w3.org/2000/svg">
<path d="M5 4.25C3.62109 4.25 2.5 5.37109 2.5 6.75V16.75C2.5 18.1289 3.62109 19.25 5 19.25H10.625L10 21.125H7.1875C6.66797 21.125 6.25 21.543 6.25 22.0625C6.25 22.582 6.66797 23 7.1875 23H17.8125C18.332 23 18.75 22.582 18.75 22.0625C18.75 21.543 18.332 21.125 17.8125 21.125H15L14.375 19.25H20C21.3789 19.25 22.5 18.1289 22.5 16.75V6.75C22.5 5.37109 21.3789 4.25 20 4.25H5ZM6.25 6.75H18.75C19.4414 6.75 20 7.30859 20 8V14.25C20 14.9414 19.4414 15.5 18.75 15.5H6.25C5.55859 15.5 5 14.9414 5 14.25V8C5 7.30859 5.55859 6.75 6.25 6.75Z" fill="#E4AC2C"/>
</svg>
