<svg width="72" height="34" viewBox="0 0 72 34" fill="none" xmlns="http://www.w3.org/2000/svg">
<path d="M0.544006 18.3641C0.3369 18.0053 0.459806 17.5466 0.818525 17.3395L15.263 9L16.013 10.299L1.56853 18.6386C1.20981 18.8457 0.751113 18.7228 0.544006 18.3641V18.3641Z" fill="#00E061"/>
<path d="M0.375 17.6872C0.582107 17.3285 1.0408 17.2056 1.39952 17.4127L15.844 25.7522L15.094 27.0513L0.649519 18.7117C0.290799 18.5046 0.167893 18.0459 0.375 17.6872V17.6872Z" fill="#00E061"/>
<path d="M70.625 18.2194C70.8321 18.5782 70.7092 19.0369 70.3505 19.244L55.906 27.5835L55.156 26.2845L69.6005 17.9449C69.9592 17.7378 70.4179 17.8607 70.625 18.2194V18.2194Z" fill="#00E061"/>
<path d="M70.794 18.8963C70.5869 19.255 70.1282 19.3779 69.7695 19.1708L55.325 10.8313L56.075 9.53224L70.5195 17.8718C70.8782 18.0789 71.0011 18.5376 70.794 18.8963V18.8963Z" fill="#00E061"/>
<rect x="53.9843" y="7" width="1.5" height="22.0113" transform="rotate(18.5 53.9843 7)" fill="#00E061"/>
<path d="M35.04 33.294C31.666 33.294 29.979 32.069 29.979 29.619C29.979 29.241 30.021 28.835 30.105 28.401L30.378 26.847H34.158L34.032 27.54C33.976 27.89 33.948 28.247 33.948 28.611C33.948 28.975 34.039 29.276 34.221 29.514C34.501 29.864 34.963 30.039 35.607 30.039C36.251 30.039 36.769 29.864 37.161 29.514C37.567 29.164 37.854 28.52 38.022 27.582L39.744 17.859H43.503L41.739 27.876C41.417 29.738 40.717 31.11 39.639 31.992C38.561 32.86 37.028 33.294 35.04 33.294Z" fill="#00E061"/>
<path d="M24.04 22.294C20.666 22.294 18.979 21.069 18.979 18.619C18.979 18.241 19.021 17.835 19.105 17.401L19.378 15.847H23.158L23.032 16.54C22.976 16.89 22.948 17.247 22.948 17.611C22.948 17.975 23.039 18.276 23.221 18.514C23.501 18.864 23.963 19.039 24.607 19.039C25.251 19.039 25.769 18.864 26.161 18.514C26.567 18.164 26.854 17.52 27.022 16.582L28.744 6.859H32.503L30.739 16.876C30.417 18.738 29.717 20.11 28.639 20.992C27.561 21.86 26.028 22.294 24.04 22.294Z" fill="#00E061"/>
</svg>
